Coordinates
version=1
nRows=20
nColumns=23
inDegrees=yes

Units are S.I. units (second, meters, Newtons, ...)
If the header above contains a line with 'inDegrees', this indicates whether rotational values are in degrees (yes) or radians (no).

endheader
time	pelvis_tilt	pelvis_list	pelvis_rotation	pelvis_tx	pelvis_ty	pelvis_tz	hip_flexion_r	hip_adduction_r	hip_rotation_r	knee_angle_r	knee_angle_r_beta	ankle_angle_r	subtalar_angle_r	mtp_angle_r	hip_flexion_l	hip_adduction_l	hip_rotation_l	knee_angle_l	knee_angle_l_beta	ankle_angle_l	subtalar_angle_l	mtp_angle_l
     22.50000000	     -4.14766302	      4.61157571	      4.43458507	      2.11896998	      0.98145820	      1.05336257	     41.81448877	     -5.02383938	      3.23242071	    104.21795795	      1.81894651	     -4.93368236	    -22.91175854	      0.00000000	      3.00847770	      9.01899383	      4.38659403	     38.74979958	      0.67631159	     23.72799420	      1.20543073	      0.00000000
     22.50666667	     -4.00182065	      3.73138916	      4.03610998	      2.12021034	      0.98670970	      1.05331903	     42.71421689	     -3.86514317	      3.01509983	    101.60797299	      1.77339367	     -4.22149360	    -22.53833723	      0.00000000	      0.42571395	      7.93046949	      4.39720813	     36.41101243	      0.63549205	     21.62348966	      1.21184034	      0.00000000
     22.51333333	     -4.10237217	      2.81901549	      3.69377727	      2.12155846	      0.99182744	      1.05318897	     43.73909993	     -2.73197175	      2.73324204	     98.78475240	      1.72411918	     -3.62306196	    -22.28167487	      0.00000000	     -1.81492744	      6.82113529	      4.27574401	     34.09311359	      0.59503708	     19.06298763	      1.17068661	      0.00000000
     22.52000000	     -4.34672478	      1.87394640	      3.33879877	      2.12315482	      0.99688559	      1.05310509	     44.75323108	     -1.61287845	      2.37453234	     95.72282873	      1.67067853	     -3.10913595	    -22.06644594	      0.00000000	     -3.83070918	      5.71649081	      4.05776722	     31.81173810	      0.55521957	     15.97700729	      1.09865595	      0.00000000
     22.52666667	     -4.69986195	      0.87497764	      2.84576480	      2.12487014	      1.00183928	      1.05321346	     45.76094529	     -0.35210676	      2.06446149	     92.45938361	      1.61372067	     -2.65880855	    -21.82794609	      0.00000000	     -5.61598562	      4.51633668	      3.33888920	     29.63289750	      0.51719163	     12.63382139	      1.25567578	      0.00000000
     22.53333333	     -4.94793783	     -0.13380302	      2.37960118	      2.12675618	      1.00698939	      1.05327097	     46.47328925	      0.86223615	      1.68512279	     88.96543163	      1.55273970	     -2.33107403	    -21.75828725	      0.00000000	     -7.46697257	      3.33383872	      2.55061367	     27.46537091	      0.47936115	      9.08859808	      1.40165617	      0.00000000
     22.54000000	     -5.35181258	     -1.11805112	      1.89469157	      2.12864956	      1.01189390	      1.05334959	     47.22200530	      2.02537385	      1.30262388	     85.29172119	      1.48862136	     -2.05579658	    -21.65894811	      0.00000000	     -9.00273760	      2.19189727	      1.52833036	     25.49921051	      0.44504518	      5.24617337	      1.64676297	      0.00000000
     22.54666667	     -5.72997618	     -2.07855692	      1.37999892	      2.13062289	      1.01676461	      1.05347922	     47.79275368	      3.14151695	      0.89935159	     81.42870814	      1.42119906	     -1.83580242	    -21.61884118	      0.00000000	    -10.47273453	      1.10153293	      0.33272799	     23.66089437	      0.41296051	      1.32550892	      1.94938315	      0.00000000
     22.55333333	     -6.17527375	     -2.97018383	      0.86664260	      2.13253006	      1.02143134	      1.05359994	     48.29923067	      4.16002957	      0.50224278	     77.40492901	      1.35097087	     -1.62772331	    -21.54497270	      0.00000000	    -11.71762720	      0.09508112	     -1.00844892	     22.06103344	      0.38503767	     -2.63247129	      2.29696005	      0.00000000
     22.56000000	     -6.67503353	     -3.76801409	      0.32246639	      2.13434517	      1.02582821	      1.05376780	     48.74198552	      5.09447786	      0.14864596	     73.24604169	      1.27838459	     -1.35422866	    -21.32928723	      0.00000000	    -12.73169775	     -0.80515644	     -2.52729752	     20.77178074	      0.36253597	     -6.45584867	      2.70895192	      0.00000000
     22.56666667	     -7.13935821	     -4.48968259	     -0.19149481	      2.13610312	      1.03009118	      1.05388137	     48.99977411	      5.92911668	     -0.20452456	     68.95236104	      1.20344573	     -1.04423804	    -20.99968406	      0.00000000	    -13.62956476	     -1.61599523	     -4.07087619	     19.75723393	      0.34482878	    -10.13073363	      3.14098164	      0.00000000
     22.57333333	     -7.57913428	     -5.11738721	     -0.69925260	      2.13774377	      1.03410805	      1.05402681	     49.11047945	      6.65684072	     -0.56009003	     64.55807002	      1.12675088	     -0.62537949	    -20.44520965	      0.00000000	    -14.38513646	     -2.34029904	     -5.68083378	     19.06750255	      0.33279070	    -13.47442775	      3.50110857	      0.00000000
     22.58000000	     -7.95510355	     -5.64280532	     -1.14868323	      2.13928697	      1.03788101	      1.05411333	     49.03440319	      7.24216645	     -0.94257492	     60.09792493	      1.04890666	     -0.10254627	    -19.62238032	      0.00000000	    -15.03792956	     -2.97895010	     -7.26500872	     18.71513058	      0.32664065	    -16.41032556	      3.82514947	      0.00000000
     22.58666667	     -8.43475087	     -6.01922023	     -1.58087021	      2.14068193	      1.04111153	      1.05423097	     48.98325484	      7.70530615	     -1.27286174	     55.63217620	      0.97096464	      0.49896318	    -18.53035205	      0.00000000	    -15.38823544	     -3.47654700	     -8.71072833	     18.75435678	      0.32732527	    -18.92893133	      3.80962116	      0.00000000
     22.59333333	     -8.49581414	     -6.48645148	     -1.88962319	      2.14208406	      1.04447477	      1.05426522	     48.36433488	      8.15773181	     -1.80834420	     51.14417032	      0.89263417	      1.29626992	    -16.93093171	      0.00000000	    -16.07380098	     -4.11010579	    -10.12648883	     19.05687571	      0.33260523	    -20.81484534	      3.92519229	      0.00000000
     22.60000000	     -8.57173186	     -6.81489436	     -2.12845044	      2.14331456	      1.04726573	      1.05427738	     47.73261255	      8.43713347	     -2.41314673	     46.79448082	      0.81671776	      2.17754606	    -14.83014812	      0.00000000	    -16.54317151	     -4.64182136	    -11.35749405	     19.77180919	      0.34508317	    -22.26006523	      3.85801805	      0.00000000
     22.60666667	     -8.55292192	     -7.12399651	     -2.26292639	      2.14450930	      1.04966761	      1.05424728	     46.95494147	      8.68222224	     -3.07467712	     42.58717916	      0.74328650	      3.03565127	    -12.48332576	      0.00000000	    -16.97854703	     -5.16348525	    -12.21784032	     20.78538523	      0.36277341	    -23.22161336	      3.43483304	      0.00000000
     22.61333333	     -8.39802358	     -7.40549878	     -2.29827755	      2.14562110	      1.05167859	      1.05418719	     46.02771908	      8.87801448	     -3.80715548	     38.60952894	      0.67386340	      3.81142596	     -9.90332805	      0.00000000	    -17.40361635	     -5.66640754	    -12.72534999	     22.11185388	      0.38592465	    -23.78259218	      2.74328859	      0.00000000
     22.62000000	     -8.15421557	     -7.64752134	     -2.23211904	      2.14662989	      1.05324635	      1.05408886	     45.03909545	      9.02439239	     -4.57625897	     34.95662169	      0.61010814	      4.47039463	     -7.18986612	      0.00000000	    -17.76092235	     -6.13198018	    -12.82713898	     23.74720977	      0.41446700	    -23.99990295	      1.77075901	      0.00000000
     22.62666667	     -7.82671978	     -7.89226125	     -2.06390744	      2.14758404	      1.05442323	      1.05392688	     43.99534640	      9.16869067	     -5.33956336	     31.65824592	      0.55254063	      5.00427883	     -4.54140913	      0.00000000	    -18.06097389	     -6.57538082	    -12.46882226	     25.63159265	      0.44735568	    -23.96297093	      0.57606529	      0.00000000
